<?xml version="1.0" encoding="UTF-8"?>
<svg id="Layer_1" data-name="Layer 1" xmlns="http://www.w3.org/2000/svg" width="47.2" height="44" viewBox="0 0 47.2 44">
  <defs>
    <style>
      .cls-1 {
        fill: none;
      }

      .cls-1, .cls-2, .cls-3, .cls-4, .cls-5, .cls-6, .cls-7 {
        stroke-width: 0px;
      }

      .cls-2 {
        fill: #767676;
      }

      .cls-3 {
        fill: #787020;
      }

      .cls-4 {
        fill: #3dae2b;
      }

      .cls-5 {
        fill: #f18a00;
      }

      .cls-6 {
        fill: #035c67;
      }

      .cls-7 {
        fill: #0071ce;
      }
    </style>
  </defs>
  <g id="Group_1726" data-name="Group 1726">
    <g id="Group_1725" data-name="Group 1725">
      <path id="Path_1594" data-name="Path 1594" class="cls-2" d="M6.9,33.1v4h-.7v-4h-1.1v-.7h2.9v.7h-1.1Z"/>
      <path id="Path_1595" data-name="Path 1595" class="cls-2" d="M10.9,35.1l1.4,2h-.9l-1.3-1.9h-.1v1.9h-.6v-4.6h.8c.5,0,.9.1,1.3.3.3.3.5.6.5,1,0,.3-.1.6-.3.8-.2.3-.5.4-.8.5ZM10.1,34.6h.2c.7,0,1-.3,1-.8s-.3-.7-1-.7h-.2v1.5Z"/>
      <path id="Path_1596" data-name="Path 1596" class="cls-2" d="M16.5,35.9h-2l-.5,1.2h-.8l2.3-4.9,2.2,4.9h-.7l-.5-1.2ZM16.3,35.3l-.7-1.6-.7,1.6h1.4Z"/>
      <path id="Path_1597" data-name="Path 1597" class="cls-2" d="M19.8,32.4v4.6h-.7v-4.6h.7Z"/>
      <path id="Path_1598" data-name="Path 1598" class="cls-2" d="M21.7,37v-4.9l3.4,3.5v-3.2h.7v4.9l-3.4-3.5v3.2h-.7Z"/>
      <path id="Path_1599" data-name="Path 1599" class="cls-2" d="M28.4,32.4v4.6h-.7v-4.6h.7Z"/>
      <path id="Path_1600" data-name="Path 1600" class="cls-2" d="M30.3,37v-4.9l3.4,3.5v-3.2h.7v4.9l-3.4-3.5v3.2h-.7Z"/>
      <path id="Path_1601" data-name="Path 1601" class="cls-2" d="M38.6,34.6h1.9v.2c0,.3,0,.6-.1.9-.1.3-.2.5-.4.7-.4.5-1,.7-1.6.7s-1.2-.2-1.7-.7c-.9-1-.9-2.5,0-3.4.7-.7,1.8-.9,2.7-.5.3.2.6.4.9.7l-.5.5c-.3-.4-.8-.7-1.3-.7s-.9.2-1.2.5-.5.8-.5,1.2c0,.9.7,1.7,1.7,1.7.3,0,.7-.1.9-.3.3-.2.4-.5.5-.8h-1.2l-.1-.7Z"/>
    </g>
  </g>
  <g id="Group_1727" data-name="Group 1727">
    <path id="Path_1602" data-name="Path 1602" class="cls-2" d="M12.4,5.1c6.7-4.4,15.3-4.4,22-.1.6-.2,1.3-.4,2-.5-7.7-5.7-18.3-5.7-26,.1.7.1,1.3.2,2,.5h0Z"/>
    <path id="Path_1603" data-name="Path 1603" class="cls-2" d="M33.3,39.7c-6.1,3.4-13.6,3.4-19.7,0h-2.8c7.6,5.4,17.7,5.4,25.3,0h-2.8Z"/>
  </g>
  <path id="Path_1604" data-name="Path 1604" class="cls-1" d="M37.9,10.6c-.8,0-1.5.3-2.1.8-1.7,1.6-1.9,4.9-1.9,6.5,0,1.8.3,4.9,1.9,6.5,1.2,1.1,3,1.1,4.2,0,1.6-1.6,1.9-4.7,1.9-6.5,0-1.6-.2-4.8-1.9-6.5-.5-.6-1.3-.9-2.1-.8Z"/>
  <path id="Path_1605" data-name="Path 1605" class="cls-1" d="M25.6,18.7c-.8-.6-1.7-1-2.7-.9-1-.1-2,.3-2.7,1-.8.8-1.2,1.8-1.1,2.9,0,1.1.4,2.1,1.2,2.8.7.7,1.7,1.1,2.7,1,1,0,2-.3,2.7-1,.8-.8,1.2-1.9,1.2-3-.1-1.1-.5-2.1-1.3-2.8Z"/>
  <path id="Path_1606" data-name="Path 1606" class="cls-7" d="M14.4,18h.6c.3,0,.5-.2.5-.5v-1.8s0-.1.1-.1h0c.5-.8.7-1.8.7-2.7.1-1.7-.5-3.4-1.7-4.6-1.2-1.1-3.1-2-5.9-2-2.2-.2-4.2.5-5.8,2-1.3,1.4-2,3.2-2.2,5.1h5c0-.8.3-1.5.8-2.1,1.1-1,2.8-1,4-.1.5.5.8,1.1.7,1.8,0,.8-.3,1.5-.8,2-.7.4-1.5.7-2.3.6h-.3v3.6h.4c1-.1,2,.2,2.8.7.6.5,1,1.3,1,2.2s-.3,1.7-.9,2.3c-.6.5-1.4.8-2.3.8s-1.8-.3-2.5-.9c-.6-.7-1-1.6-1.1-2.5H0c.2,2.1,1.1,4,2.5,5.6,2,2,4.4,2.3,6.6,2.3,2.3-.1,4.3-.6,6-2,.2-.2.5-.5.7-.7-1.3-1.5-2.1-3.5-2-5.5,0-1.1.2-2.4.6-3.5Z"/>
  <path id="Path_1608" data-name="Path 1608" class="cls-4" d="M28.9,14.9c-1.3-.8-2.8-1.2-4.3-1.1-.8,0-1.6.1-2.4.4l5.9-7.4-5.6-.6-5.2,6.8c-.6.8-1.2,1.7-1.8,2.5h0c-.4.7-.8,1.4-1.1,2.2.7.3,1.3.8,1.7,1.4.7,1.1,1.1,2.3,1.1,3.6,0,1.6-.6,3.2-1.6,4.4h0c2.2,2.4,5.2,2.6,7.3,2.6s4.9-.3,6.9-2.5c.3-.3.6-.7.8-1.1-1.4-2.2-2.1-4.6-2.2-8.1.2-1.1.3-2.1.5-3.1h0ZM25.6,24.4c-.7.7-1.7,1-2.7,1s-2-.4-2.7-1c-.8-.7-1.2-1.7-1.2-2.8s.4-2.1,1.1-2.9c.7-.7,1.7-1,2.7-1s2,.3,2.7.9c.8.7,1.2,1.7,1.2,2.8.1,1.1-.3,2.2-1.1,3h0Z"/>
  <path id="Path_1609" data-name="Path 1609" class="cls-6" d="M16.3,19.1c-.5-.6-1.1-1.1-1.7-1.4-.5,1.3-.8,2.6-.8,3.9-.1,2,.6,4,2,5.5,1-1.2,1.6-2.8,1.6-4.4-.1-1.3-.4-2.6-1.1-3.6Z"/>
  <path id="Path_1610" data-name="Path 1610" class="cls-5" d="M43.9,8.4c-1.6-1.6-3.8-2.4-6.1-2.3-2.2-.1-4.4.8-6,2.3-1.7,1.8-2.7,4-3,6.4.5.3.9.6,1.3,1,1.3,1.4,2,3.3,2,5.2,0,1.7-.4,3.4-1.3,5,.3.5.7.9,1.1,1.3,1.6,1.6,3.8,2.4,6,2.3,2.2.1,4.4-.8,6.1-2.3,2.2-2.2,3.2-5.6,3.2-9.4s-1.1-7.3-3.3-9.5h0ZM40,24.4c-1.2,1.1-3,1.1-4.2,0-1.6-1.6-1.9-4.7-1.9-6.5,0-1.6.2-4.8,1.9-6.5,1.2-1.1,3-1.1,4.2,0,1.7,1.6,1.9,4.9,1.9,6.5,0,1.7-.3,4.9-1.9,6.5h0Z"/>
  <path id="Path_1611" data-name="Path 1611" class="cls-3" d="M30.2,15.9c-.4-.4-.8-.7-1.3-1-.2,1-.2,1.9-.2,3.1,0,3.1.7,5.8,2.2,8.1.9-1.5,1.3-3.2,1.3-5,0-1.9-.7-3.8-2-5.2h0Z"/>
  <path class="cls-2" d="M42.6,33.1c0,.2-.1.4-.2.6-.2.2-.3.2-.6.2s-.4-.1-.6-.2c-.2-.2-.2-.3-.2-.6,0-.1,0-.2.1-.3s.1-.2.2-.3c.1-.1.3-.2.5-.2.1,0,.2,0,.3.1s.3.2.3.3c.2.1.2.2.2.4ZM41.8,32.4c-.2,0-.3.1-.5.2-.1.1-.2.3-.2.5s.1.4.2.5c.1.1.3.2.5.2s.3-.1.5-.2c.1-.1.2-.3.2-.5,0-.1,0-.2-.1-.3s-.1-.2-.2-.2c-.1-.2-.2-.2-.4-.2ZM41.9,33.2l.3.4h-.2l-.3-.4v.4h-.2v-.9h.2c.1,0,.2,0,.3.1s.1.1.1.2,0,.1-.1.2q0-.1-.1,0h0ZM41.7,33h0q.2,0,.2-.1c0-.1-.1-.1-.2-.1h0v.2Z"/>
</svg>