<svg width="729" height="148" viewBox="0 0 729 148" fill="none" xmlns="http://www.w3.org/2000/svg">
<mask id="mask0_442_636" style="mask-type:luminance" maskUnits="userSpaceOnUse" x="170" y="47" width="559" height="80">
<path d="M728.7 47.5H170.01V126.93H728.7V47.5Z" fill="white"/>
</mask>
<g mask="url(#mask0_442_636)">
<path d="M199.63 106.42L180.53 83.04V106.41H170.01V53.97H180.53V77.49L199.63 53.97H212.33L190.68 79.97L212.93 106.42H199.63Z" fill="#1F2023"/>
<path d="M253.24 68.8799C256.29 72.0099 257.83 76.3799 257.83 81.9899V106.41H247.31V83.4099C247.31 80.0999 246.48 77.5699 244.83 75.7799C243.17 73.9999 240.92 73.1199 238.06 73.1199C235.2 73.1199 232.86 74.0099 231.18 75.7799C229.5 77.5599 228.66 80.0999 228.66 83.4099V106.41H218.14V64.7899H228.66V69.9799C230.07 68.1799 231.86 66.7699 234.03 65.7299C236.21 64.6999 238.6 64.1899 241.21 64.1899C246.17 64.1899 250.18 65.7599 253.24 68.8899V68.8799Z" fill="#1F2023"/>
<path d="M272.9 104.42C269.69 102.64 267.17 100.13 265.35 96.87C263.52 93.61 262.61 89.85 262.61 85.6C262.61 81.35 263.55 77.58 265.43 74.33C267.31 71.07 269.88 68.55 273.14 66.78C276.4 65 280.03 64.12 284.04 64.12C288.05 64.12 291.68 65.01 294.94 66.78C298.2 68.56 300.77 71.07 302.65 74.33C304.53 77.59 305.47 81.35 305.47 85.6C305.47 89.85 304.5 93.62 302.57 96.87C300.64 100.13 298.03 102.65 294.75 104.42C291.46 106.2 287.8 107.08 283.74 107.08C279.68 107.08 276.13 106.19 272.92 104.42H272.9ZM289.1 96.53C290.78 95.61 292.12 94.21 293.12 92.36C294.12 90.51 294.62 88.26 294.62 85.59C294.62 81.63 293.58 78.59 291.5 76.46C289.42 74.33 286.88 73.26 283.87 73.26C280.86 73.26 278.34 74.33 276.32 76.46C274.29 78.59 273.28 81.63 273.28 85.59C273.28 89.55 274.27 92.59 276.25 94.72C278.22 96.85 280.73 97.91 283.73 97.91C285.64 97.91 287.43 97.44 289.1 96.52H289.12L289.1 96.53Z" fill="#1F2023"/>
<path d="M368.35 64.78L356.17 106.41H344.82L337.23 77.33L329.64 106.41H318.21L305.96 64.78H316.64L324 96.49L331.97 64.78H343.09L350.91 96.41L358.27 64.78H368.33H368.35Z" fill="#1F2023"/>
<path d="M383.72 50.8099V106.41H373.2V50.8099H383.72Z" fill="#1F2023"/>
<path d="M431.65 88.75H401.2C401.45 91.76 402.5 94.11 404.36 95.81C406.21 97.52 408.49 98.36 411.2 98.36C415.11 98.36 417.89 96.68 419.55 93.33H430.9C429.69 97.34 427.39 100.63 423.98 103.21C420.57 105.79 416.39 107.08 411.42 107.08C407.41 107.08 403.81 106.19 400.63 104.42C397.45 102.64 394.96 100.13 393.19 96.87C391.41 93.61 390.53 89.85 390.53 85.6C390.53 81.35 391.41 77.51 393.16 74.26C394.91 71 397.37 68.5 400.52 66.74C403.68 64.99 407.31 64.11 411.42 64.11C415.53 64.11 418.92 64.96 422.06 66.66C425.19 68.37 427.62 70.78 429.36 73.91C431.08 77.04 431.96 80.63 431.96 84.69C431.96 86.19 431.86 87.54 431.66 88.75H431.65ZM421.05 81.7C421 78.99 420.02 76.83 418.12 75.2C416.21 73.57 413.89 72.76 411.13 72.76C408.53 72.76 406.33 73.55 404.55 75.13C402.77 76.71 401.68 78.9 401.28 81.71H421.05V81.7Z" fill="#1F2023"/>
<path d="M440.29 74.2499C441.97 70.9899 444.26 68.4899 447.17 66.7299C450.08 64.9799 453.31 64.0999 456.87 64.0999C459.58 64.0999 462.16 64.6899 464.61 65.8699C467.07 67.0499 469.02 68.6099 470.47 70.5699V50.8099H481.15V106.41H470.47V100.25C469.17 102.3 467.34 103.96 464.99 105.21C462.64 106.46 459.9 107.09 456.8 107.09C453.29 107.09 450.08 106.19 447.18 104.38C444.27 102.58 441.98 100.04 440.3 96.7499C438.62 93.4699 437.78 89.6999 437.78 85.4399C437.78 81.1799 438.62 77.4999 440.3 74.2399L440.29 74.2499ZM469.04 79.0299C468.04 77.1999 466.69 75.7999 464.98 74.8199C463.27 73.8499 461.44 73.3499 459.5 73.3499C457.56 73.3499 455.74 73.8199 454.08 74.7799C452.42 75.7299 451.09 77.1199 450.06 78.9499C449.03 80.7799 448.52 82.9499 448.52 85.4499C448.52 87.9499 449.04 90.1499 450.06 92.0299C451.09 93.9099 452.44 95.3499 454.12 96.3499C455.8 97.3499 457.59 97.8499 459.49 97.8499C461.39 97.8499 463.28 97.3599 464.97 96.3799C466.68 95.4099 468.02 93.9999 469.03 92.1699C470.03 90.3399 470.53 88.1499 470.53 85.5899C470.53 83.0299 470.03 80.8399 469.03 79.0099L469.04 79.0299Z" fill="#1F2023"/>
<path d="M514.24 65.95C516.59 67.17 518.45 68.77 519.8 70.73V64.79H530.4V106.71C530.4 110.56 529.62 114.01 528.07 117.04C526.52 120.07 524.19 122.48 521.08 124.25C517.98 126.03 514.22 126.91 509.8 126.91C503.88 126.91 499.04 125.53 495.25 122.78C491.46 120.02 489.33 116.26 488.82 111.51H499.27C499.82 113.41 501.01 114.93 502.84 116.05C504.67 117.18 506.88 117.74 509.49 117.74C512.54 117.74 515.03 116.83 516.93 115C518.84 113.17 519.78 110.41 519.78 106.7V100.24C518.43 102.2 516.55 103.83 514.18 105.13C511.8 106.43 509.08 107.09 506.02 107.09C502.51 107.09 499.3 106.19 496.4 104.38C493.49 102.58 491.2 100.04 489.52 96.75C487.84 93.47 487 89.7 487 85.44C487 81.18 487.84 77.5 489.52 74.24C491.2 70.98 493.48 68.48 496.36 66.72C499.24 64.97 502.46 64.09 506.02 64.09C509.12 64.09 511.86 64.7 514.21 65.93H514.23L514.24 65.95ZM518.3 79.03C517.3 77.2 515.95 75.8 514.24 74.82C512.53 73.85 510.7 73.35 508.76 73.35C506.82 73.35 505 73.82 503.34 74.78C501.68 75.73 500.35 77.12 499.32 78.95C498.29 80.78 497.78 82.95 497.78 85.45C497.78 87.95 498.3 90.15 499.32 92.03C500.35 93.91 501.7 95.35 503.38 96.35C505.06 97.35 506.85 97.85 508.75 97.85C510.65 97.85 512.54 97.36 514.23 96.38C515.94 95.41 517.28 94 518.29 92.17C519.29 90.34 519.79 88.15 519.79 85.59C519.79 83.03 519.29 80.84 518.29 79.01L518.3 79.03Z" fill="#1F2023"/>
<path d="M577.39 88.75H546.94C547.19 91.76 548.24 94.11 550.1 95.81C551.95 97.52 554.23 98.36 556.94 98.36C560.85 98.36 563.63 96.68 565.29 93.33H576.64C575.43 97.34 573.13 100.63 569.72 103.21C566.31 105.79 562.13 107.08 557.16 107.08C553.15 107.08 549.55 106.19 546.37 104.42C543.19 102.64 540.7 100.13 538.93 96.87C537.15 93.61 536.26 89.85 536.26 85.6C536.26 81.35 537.14 77.51 538.89 74.26C540.64 71 543.1 68.5 546.25 66.74C549.41 64.99 553.04 64.11 557.15 64.11C561.26 64.11 564.65 64.96 567.79 66.66C570.92 68.37 573.35 70.78 575.09 73.91C576.81 77.04 577.69 80.63 577.69 84.69C577.69 86.19 577.59 87.54 577.39 88.75ZM566.79 81.7C566.74 78.99 565.76 76.83 563.86 75.2C561.95 73.57 559.62 72.76 556.87 72.76C554.27 72.76 552.07 73.55 550.29 75.13C548.51 76.71 547.42 78.9 547.02 81.71H566.79V81.7Z" fill="#1F2023"/>
<path d="M585.43 66.25C587.76 62.16 590.94 58.98 594.98 56.71C599.02 54.43 603.53 53.29 608.55 53.29C614.41 53.29 619.55 54.79 623.96 57.8C628.37 60.81 631.45 64.96 633.2 70.27H621.09C619.89 67.76 618.19 65.89 616.02 64.63C613.84 63.38 611.32 62.75 608.47 62.75C605.41 62.75 602.69 63.47 600.31 64.89C597.93 66.32 596.08 68.34 594.75 70.94C593.42 73.54 592.76 76.6 592.76 80.11C592.76 83.62 593.42 86.61 594.75 89.24C596.08 91.87 597.93 93.9 600.31 95.33C602.69 96.76 605.41 97.47 608.47 97.47C611.32 97.47 613.84 96.83 616.02 95.56C618.2 94.28 619.89 92.4 621.09 89.89H633.2C631.44 95.25 628.38 99.42 623.99 102.4C619.6 105.38 614.45 106.87 608.55 106.87C603.54 106.87 599.01 105.73 594.98 103.45C590.94 101.17 587.76 98 585.43 93.94C583.1 89.88 581.94 85.28 581.94 80.11C581.94 74.94 583.1 70.33 585.43 66.25Z" fill="#1F2023"/>
<path d="M639.5 58.06C638.28 56.89 637.66 55.42 637.66 53.66C637.66 51.9 638.27 50.44 639.5 49.26C640.72 48.09 642.27 47.49 644.12 47.49C645.97 47.49 647.52 48.08 648.74 49.26C649.96 50.44 650.58 51.91 650.58 53.66C650.58 55.41 649.97 56.88 648.74 58.06C647.52 59.24 645.97 59.83 644.12 59.83C642.27 59.83 640.72 59.24 639.5 58.06ZM649.31 64.78V106.41H638.79V64.78H649.31Z" fill="#1F2023"/>
<path d="M671.94 73.43V93.57C671.94 94.97 672.28 95.98 672.96 96.61C673.63 97.24 674.78 97.55 676.38 97.55H681.27V106.42H674.66C665.79 106.42 661.35 102.11 661.35 93.5V73.43H656.39V64.79H661.35V54.49H671.95V64.78H681.27V73.42H671.94V73.43Z" fill="#1F2023"/>
<path d="M728.69 64.78L702.9 126.1H691.7L700.72 105.36L684.03 64.79H695.84L706.59 93.87L717.49 64.79H728.68L728.69 64.78Z" fill="#1F2023"/>
</g>
<path d="M131.447 17.4176C114.687 0.657576 69.5575 -3.27243 39.5075 5.63757V74.3076L57.1375 52.0576H74.3875L51.2575 78.3876L74.5775 104.528H57.3275L39.5075 82.1776V104.528H26.2375V11.0076C22.7975 12.8776 19.8175 15.0176 17.4175 17.4176C-4.4725 39.3076 -4.4725 109.558 17.4175 131.448C39.3075 153.338 109.557 153.338 131.447 131.448C153.337 109.558 153.337 39.3076 131.447 17.4176ZM91.4375 90.0876C93.6475 92.7976 96.6475 94.1576 100.438 94.1576C105.808 94.1576 109.318 91.7576 110.958 86.9576H125.268C123.818 92.6376 120.938 97.1576 116.637 100.498C112.337 103.848 106.967 105.518 100.527 105.518C95.4675 105.518 90.9875 104.418 87.0675 102.208C83.1475 99.9376 80.0875 96.7776 77.8775 92.7376C75.6675 88.6376 74.5575 83.8676 74.5575 78.4376C74.5575 73.0076 75.6675 68.2776 77.8775 64.2276C80.0875 60.1276 83.1575 56.9676 87.0675 54.7576C90.9875 52.4876 95.4675 51.3476 100.527 51.3476C107.037 51.3476 112.407 52.9876 116.637 56.2676C120.938 59.4876 123.808 64.0376 125.268 69.9076H110.958C110.198 67.6376 108.908 65.8676 107.068 64.6076C105.298 63.2776 103.088 62.6176 100.438 62.6176C96.6475 62.6176 93.6475 64.0076 91.4375 66.7876C89.2275 69.4976 88.1175 73.3876 88.1175 78.4376C88.1175 83.4876 89.2275 87.3076 91.4375 90.0876Z" fill="#FF881A"/>
<path d="M39.5076 104.518V82.1676L57.3276 104.518H74.5776L51.2576 78.3776L74.3876 52.0476H57.1376L39.5076 74.2976V5.64758C34.6276 7.09758 30.1375 8.88758 26.2375 11.0076V104.518H39.5076Z" fill="white"/>
<path d="M100.438 62.6275C103.087 62.6275 105.308 63.2875 107.068 64.6175C108.898 65.8775 110.198 67.6475 110.958 69.9175H125.268C123.818 64.0475 120.937 59.4975 116.637 56.2775C112.407 52.9975 107.037 51.3575 100.527 51.3575C95.4675 51.3575 90.9875 52.4975 87.0675 54.7675C83.1475 56.9775 80.0875 60.1375 77.8775 64.2375C75.6675 68.2775 74.5575 73.0175 74.5575 78.4475C74.5575 83.8775 75.6675 88.6475 77.8775 92.7475C80.0875 96.7875 83.1575 99.9475 87.0675 102.218C90.9875 104.428 95.4675 105.528 100.527 105.528C106.977 105.528 112.347 103.858 116.637 100.508C120.937 97.1576 123.808 92.6475 125.268 86.9675H110.958C109.318 91.7675 105.807 94.1675 100.438 94.1675C96.6475 94.1675 93.6475 92.8075 91.4375 90.0975C89.2275 87.3176 88.1175 83.4375 88.1175 78.4475C88.1175 73.4575 89.2275 69.5175 91.4375 66.7975C93.6475 64.0175 96.6475 62.6275 100.438 62.6275Z" fill="white"/>
</svg>
